<?xml version="1.0" standalone="no"?>
<!DOCTYPE svg PUBLIC "-//W3C//DTD SVG 20010904//EN"
 "http://www.w3.org/TR/2001/REC-SVG-20010904/DTD/svg10.dtd">
<svg version="1.0" xmlns="http://www.w3.org/2000/svg"
 width="271.000000pt" height="284.000000pt" viewBox="0 0 271.000000 284.000000"
 preserveAspectRatio="xMidYMid meet">

<g transform="translate(0.000000,284.000000) scale(0.100000,-0.100000)"
fill="#000000" stroke="none">
<path d="M1359 2776 c-84 -78 -138 -107 -300 -161 -192 -65 -256 -108 -269
-182 -6 -34 -7 -30 -14 37 -14 143 -13 143 -55 64 -20 -38 -52 -91 -71 -119
-19 -27 -49 -76 -65 -109 -29 -55 -33 -59 -89 -76 -79 -25 -147 -72 -270 -189
-57 -55 -114 -102 -125 -106 -36 -11 -23 -23 32 -30 54 -6 92 2 195 44 28 11
52 19 52 17 0 -1 -13 -30 -30 -62 -44 -90 -56 -203 -33 -344 l5 -35 24 60 c13
33 35 74 49 90 l24 30 1 -46 c0 -55 4 -61 38 -48 19 7 8 -8 -41 -61 -110 -116
-157 -232 -157 -384 0 -140 38 -251 120 -355 48 -61 148 -133 223 -162 53 -20
58 -25 92 -93 84 -163 226 -322 356 -399 193 -114 425 -122 624 -22 146 74
283 214 378 387 l54 97 90 45 c192 97 301 260 311 466 7 156 -40 296 -135 401
-34 38 -35 40 -28 99 6 52 9 59 22 49 17 -15 55 -89 73 -144 l14 -40 19 60
c27 82 28 221 3 295 -26 76 -70 137 -124 171 -62 39 -39 36 76 -10 54 -21 109
-41 124 -45 14 -3 34 -9 45 -12 10 -4 -14 26 -53 67 -38 41 -101 109 -139 153
-38 43 -92 96 -120 117 -56 43 -155 83 -228 94 -40 6 -46 10 -35 22 18 22 105
64 183 88 l70 22 -32 16 c-47 25 -150 47 -219 47 -118 0 -302 -46 -330 -83
-16 -22 -16 -21 -10 13 11 61 55 136 116 200 33 34 60 65 60 68 0 9 -134 -7
-187 -23 -28 -8 -92 -42 -142 -75 -84 -55 -182 -110 -196 -110 -4 0 7 11 22
24 16 14 35 42 41 63 14 47 36 173 31 178 -2 1 -34 -25 -70 -59z m686 -1240
c104 -27 181 -82 233 -164 125 -195 52 -452 -157 -555 -61 -30 -73 -32 -166
-32 l-100 0 -125 59 c-205 96 -244 109 -340 110 -102 1 -139 -10 -335 -103
l-140 -66 -100 0 c-93 0 -105 2 -167 33 -80 39 -145 102 -184 180 -27 52 -29
66 -29 162 0 93 3 112 27 162 49 106 161 196 270 217 24 5 318 9 653 10 480 1
621 -2 660 -13z m-342 -1018 c-40 -75 -121 -154 -190 -185 -127 -59 -277 -23
-378 89 -26 29 -58 74 -71 100 l-24 48 345 0 346 0 -28 -52z"/>
<path d="M1871 1344 c-12 -15 -21 -32 -21 -39 0 -23 41 -65 64 -65 38 0 66 28
66 65 0 62 -71 87 -109 39z"/>
<path d="M770 1295 l0 -65 -65 0 -65 0 0 -65 0 -65 65 0 65 0 0 -70 0 -70 65
0 64 0 3 68 3 67 63 3 62 3 0 64 0 65 -65 0 -65 0 0 65 0 65 -65 0 -65 0 0
-65z"/>
<path d="M1736 1209 c-30 -23 -33 -54 -10 -87 12 -18 24 -22 52 -20 65 5 85
90 27 116 -34 16 -38 15 -69 -9z"/>
<path d="M2022 1214 c-46 -32 -18 -114 39 -114 30 0 43 9 58 37 16 31 14 41
-14 68 -28 29 -51 31 -83 9z"/>
<path d="M1873 1068 c-44 -57 2 -131 67 -106 13 5 28 15 32 21 13 20 9 65 -8
81 -18 19 -78 21 -91 4z"/>
</g>
</svg>
